<svg width="1070" height="183" viewBox="0 0 1070 183" fill="none" xmlns="http://www.w3.org/2000/svg">
<path d="M209 138V44.9091H274.455V65.2727H234.273V81.2727H270.455V101.636H234.273V138H209ZM281.205 65.2727V44.9091H362.114V65.2727H334.114V138H309.205V65.2727H281.205ZM454.159 79.8182H428.523C428.341 77.697 427.856 75.7727 427.068 74.0455C426.311 72.3182 425.25 70.8333 423.886 69.5909C422.553 68.3182 420.932 67.3485 419.023 66.6818C417.114 65.9848 414.947 65.6364 412.523 65.6364C408.28 65.6364 404.689 66.6667 401.75 68.7273C398.841 70.7879 396.629 73.7424 395.114 77.5909C393.629 81.4394 392.886 86.0606 392.886 91.4545C392.886 97.1515 393.644 101.924 395.159 105.773C396.705 109.591 398.932 112.47 401.841 114.409C404.75 116.318 408.25 117.273 412.341 117.273C414.674 117.273 416.765 116.985 418.614 116.409C420.462 115.803 422.068 114.939 423.432 113.818C424.795 112.697 425.902 111.348 426.75 109.773C427.629 108.167 428.22 106.364 428.523 104.364L454.159 104.545C453.856 108.485 452.75 112.5 450.841 116.591C448.932 120.652 446.22 124.409 442.705 127.864C439.22 131.288 434.902 134.045 429.75 136.136C424.598 138.227 418.614 139.273 411.795 139.273C403.25 139.273 395.583 137.439 388.795 133.773C382.038 130.106 376.689 124.712 372.75 117.591C368.841 110.47 366.886 101.758 366.886 91.4545C366.886 81.0909 368.886 72.3636 372.886 65.2727C376.886 58.1515 382.28 52.7727 389.068 49.1364C395.856 45.4697 403.432 43.6364 411.795 43.6364C417.674 43.6364 423.083 44.4394 428.023 46.0454C432.962 47.6515 437.295 50 441.023 53.0909C444.75 56.1515 447.75 59.9242 450.023 64.4091C452.295 68.8939 453.674 74.0303 454.159 79.8182ZM546.216 44.9091H571.489V104.545C571.489 111.636 569.792 117.773 566.398 122.955C563.034 128.106 558.337 132.091 552.307 134.909C546.277 137.697 539.277 139.091 531.307 139.091C523.277 139.091 516.246 137.697 510.216 134.909C504.186 132.091 499.489 128.106 496.125 122.955C492.792 117.773 491.125 111.636 491.125 104.545V44.9091H516.398V102.364C516.398 105.242 517.034 107.818 518.307 110.091C519.58 112.333 521.337 114.091 523.58 115.364C525.852 116.636 528.428 117.273 531.307 117.273C534.216 117.273 536.792 116.636 539.034 115.364C541.277 114.091 543.034 112.333 544.307 110.091C545.58 107.818 546.216 105.242 546.216 102.364V44.9091ZM583.864 164.182V68.1818H608.773V80.3636H609.318C610.227 78 611.561 75.8333 613.318 73.8636C615.076 71.8636 617.258 70.2727 619.864 69.0909C622.47 67.8788 625.5 67.2727 628.955 67.2727C633.561 67.2727 637.939 68.5 642.091 70.9545C646.273 73.4091 649.667 77.2727 652.273 82.5455C654.909 87.8182 656.227 94.6667 656.227 103.091C656.227 111.152 654.97 117.833 652.455 123.136C649.97 128.439 646.636 132.394 642.455 135C638.303 137.606 633.742 138.909 628.773 138.909C625.5 138.909 622.576 138.379 620 137.318C617.455 136.227 615.273 134.758 613.455 132.909C611.667 131.03 610.288 128.909 609.318 126.545H608.955V164.182H583.864ZM608.409 103.091C608.409 106.485 608.848 109.424 609.727 111.909C610.636 114.364 611.909 116.273 613.545 117.636C615.212 118.97 617.197 119.636 619.5 119.636C621.803 119.636 623.758 118.985 625.364 117.682C627 116.348 628.242 114.455 629.091 112C629.97 109.515 630.409 106.545 630.409 103.091C630.409 99.6364 629.97 96.6818 629.091 94.2273C628.242 91.7424 627 89.8485 625.364 88.5455C623.758 87.2121 621.803 86.5455 619.5 86.5455C617.197 86.5455 615.212 87.2121 613.545 88.5455C611.909 89.8485 610.636 91.7424 609.727 94.2273C608.848 96.6818 608.409 99.6364 608.409 103.091ZM691.83 44.9091V138H666.739V44.9091H691.83ZM738.25 139.273C730.674 139.273 724.189 137.773 718.795 134.773C713.402 131.742 709.265 127.53 706.386 122.136C703.508 116.712 702.068 110.424 702.068 103.273C702.068 96.1212 703.508 89.8485 706.386 84.4545C709.265 79.0303 713.402 74.8182 718.795 71.8182C724.189 68.7879 730.674 67.2727 738.25 67.2727C745.826 67.2727 752.311 68.7879 757.705 71.8182C763.098 74.8182 767.235 79.0303 770.114 84.4545C772.992 89.8485 774.432 96.1212 774.432 103.273C774.432 110.424 772.992 116.712 770.114 122.136C767.235 127.53 763.098 131.742 757.705 134.773C752.311 137.773 745.826 139.273 738.25 139.273ZM738.432 120.727C740.553 120.727 742.386 120.015 743.932 118.591C745.477 117.167 746.674 115.136 747.523 112.5C748.371 109.864 748.795 106.727 748.795 103.091C748.795 99.4242 748.371 96.2879 747.523 93.6818C746.674 91.0455 745.477 89.0152 743.932 87.5909C742.386 86.1667 740.553 85.4545 738.432 85.4545C736.189 85.4545 734.265 86.1667 732.659 87.5909C731.053 89.0152 729.826 91.0455 728.977 93.6818C728.129 96.2879 727.705 99.4242 727.705 103.091C727.705 106.727 728.129 109.864 728.977 112.5C729.826 115.136 731.053 117.167 732.659 118.591C734.265 120.015 736.189 120.727 738.432 120.727ZM804.068 139.091C799.614 139.091 795.674 138.364 792.25 136.909C788.856 135.424 786.189 133.182 784.25 130.182C782.311 127.182 781.341 123.364 781.341 118.727C781.341 114.909 781.992 111.652 783.295 108.955C784.598 106.227 786.417 104 788.75 102.273C791.083 100.545 793.795 99.2273 796.886 98.3182C800.008 97.4091 803.371 96.8182 806.977 96.5455C810.886 96.2424 814.023 95.8788 816.386 95.4545C818.78 95 820.508 94.3788 821.568 93.5909C822.629 92.7727 823.159 91.697 823.159 90.3636V90.1818C823.159 88.3636 822.462 86.9697 821.068 86C819.674 85.0303 817.886 84.5455 815.705 84.5455C813.311 84.5455 811.356 85.0758 809.841 86.1364C808.356 87.1667 807.462 88.7576 807.159 90.9091H784.068C784.371 86.6667 785.72 82.7576 788.114 79.1818C790.538 75.5758 794.068 72.697 798.705 70.5455C803.341 68.3636 809.129 67.2727 816.068 67.2727C821.068 67.2727 825.553 67.8636 829.523 69.0455C833.492 70.197 836.871 71.8182 839.659 73.9091C842.447 75.9697 844.568 78.3939 846.023 81.1818C847.508 83.9394 848.25 86.9394 848.25 90.1818V138H824.795V128.182H824.25C822.856 130.788 821.159 132.894 819.159 134.5C817.189 136.106 814.932 137.273 812.386 138C809.871 138.727 807.098 139.091 804.068 139.091ZM812.25 123.273C814.159 123.273 815.947 122.879 817.614 122.091C819.311 121.303 820.689 120.167 821.75 118.682C822.811 117.197 823.341 115.394 823.341 113.273V107.455C822.674 107.727 821.962 107.985 821.205 108.227C820.477 108.47 819.689 108.697 818.841 108.909C818.023 109.121 817.144 109.318 816.205 109.5C815.295 109.682 814.341 109.848 813.341 110C811.402 110.303 809.811 110.803 808.568 111.5C807.356 112.167 806.447 113 805.841 114C805.265 114.97 804.977 116.061 804.977 117.273C804.977 119.212 805.659 120.697 807.023 121.727C808.386 122.758 810.129 123.273 812.25 123.273ZM885.511 138.909C880.542 138.909 875.966 137.606 871.784 135C867.633 132.394 864.299 128.439 861.784 123.136C859.299 117.833 858.057 111.152 858.057 103.091C858.057 94.6667 859.36 87.8182 861.966 82.5455C864.602 77.2727 867.996 73.4091 872.148 70.9545C876.33 68.5 880.723 67.2727 885.33 67.2727C888.784 67.2727 891.814 67.8788 894.42 69.0909C897.027 70.2727 899.208 71.8636 900.966 73.8636C902.723 75.8333 904.057 78 904.966 80.3636H905.33V44.9091H930.42V138H905.511V126.545H904.966C903.996 128.909 902.602 131.03 900.784 132.909C898.996 134.758 896.814 136.227 894.239 137.318C891.693 138.379 888.784 138.909 885.511 138.909ZM894.784 119.636C897.087 119.636 899.057 118.97 900.693 117.636C902.36 116.273 903.633 114.364 904.511 111.909C905.42 109.424 905.875 106.485 905.875 103.091C905.875 99.6364 905.42 96.6818 904.511 94.2273C903.633 91.7424 902.36 89.8485 900.693 88.5455C899.057 87.2121 897.087 86.5455 894.784 86.5455C892.481 86.5455 890.511 87.2121 888.875 88.5455C887.269 89.8485 886.027 91.7424 885.148 94.2273C884.299 96.6818 883.875 99.6364 883.875 103.091C883.875 106.545 884.299 109.515 885.148 112C886.027 114.455 887.269 116.348 888.875 117.682C890.511 118.985 892.481 119.636 894.784 119.636ZM976.193 139.273C968.739 139.273 962.314 137.848 956.92 135C951.557 132.121 947.42 128 944.511 122.636C941.633 117.242 940.193 110.788 940.193 103.273C940.193 96.0606 941.648 89.7576 944.557 84.3636C947.466 78.9697 951.572 74.7727 956.875 71.7727C962.178 68.7727 968.436 67.2727 975.648 67.2727C980.92 67.2727 985.693 68.0909 989.966 69.7273C994.239 71.3636 997.89 73.7424 1000.92 76.8636C1003.95 79.9545 1006.28 83.7121 1007.92 88.1364C1009.56 92.5606 1010.38 97.5455 1010.38 103.091V108.909H948.011V95.0909H987.284C987.254 93.0909 986.739 91.3333 985.739 89.8182C984.769 88.2727 983.451 87.0758 981.784 86.2273C980.148 85.3485 978.284 84.9091 976.193 84.9091C974.163 84.9091 972.299 85.3485 970.602 86.2273C968.905 87.0758 967.542 88.2576 966.511 89.7727C965.511 91.2879 964.981 93.0606 964.92 95.0909V110C964.92 112.242 965.39 114.242 966.33 116C967.269 117.758 968.617 119.136 970.375 120.136C972.133 121.136 974.254 121.636 976.739 121.636C978.466 121.636 980.042 121.394 981.466 120.909C982.92 120.424 984.163 119.727 985.193 118.818C986.223 117.879 986.981 116.758 987.466 115.455H1010.38C1009.59 120.303 1007.72 124.515 1004.78 128.091C1001.84 131.636 997.951 134.394 993.102 136.364C988.284 138.303 982.648 139.273 976.193 139.273ZM1020.61 138V68.1818H1044.98V81.4545H1045.7C1046.98 76.5455 1048.99 72.9545 1051.75 70.6818C1054.54 68.4091 1057.8 67.2727 1061.52 67.2727C1062.61 67.2727 1063.69 67.3636 1064.75 67.5455C1065.84 67.697 1066.89 67.9242 1067.89 68.2273V89.6364C1066.64 89.2121 1065.11 88.8939 1063.3 88.6818C1061.48 88.4697 1059.92 88.3636 1058.61 88.3636C1056.16 88.3636 1053.95 88.9242 1051.98 90.0455C1050.04 91.1364 1048.51 92.6818 1047.39 94.6818C1046.27 96.6515 1045.7 98.9697 1045.7 101.636V138H1020.61Z" fill="#00DE71"/>
<path d="M11.5714 23H0V161H11.5714V23Z" fill="#6E6E6E"/>
<path d="M34.7143 23H11.5714L11.5714 34.5H34.7143V23Z" fill="#6E6E6E"/>
<path d="M34.7143 149.5H11.5714L11.5714 161L34.7143 161V149.5Z" fill="#6E6E6E"/>
<path d="M162 23H150.429V161H162V23Z" fill="#6E6E6E"/>
<path d="M162 23H127.286V34.5H162L162 23Z" fill="#6E6E6E"/>
<path d="M150.429 149.5H127.286V161L150.429 161V149.5Z" fill="#6E6E6E"/>
<path fill-rule="evenodd" clip-rule="evenodd" d="M71.2836 84.0925H42.1345L81 45.3979L119.865 84.0925H90.7164V132.461H71.2836V84.0925Z" fill="#00DE71"/>
</svg>
